<svg width="960" height="240" viewBox="0 0 960 240" fill="none" xmlns="http://www.w3.org/2000/svg">
  <rect width="960" height="240" rx="28" fill="#F5F0E6"/>
  <g transform="translate(44 44)">
    <rect x="0" y="0" width="152" height="152" rx="30" fill="#11212D"/>
    <path d="M34 48C54 35 73 32 92 39C101 42 110 48 118 56V114C109 106 100 100 89 97C71 92 53 94 34 106V48Z" fill="#F5F0E6"/>
    <path d="M118 48C98 35 79 32 60 39C51 42 42 48 34 56V114C43 106 52 100 63 97C81 92 99 94 118 106V48Z" stroke="#11212D" stroke-width="10" stroke-linejoin="round"/>
    <path d="M76 42V115" stroke="#11212D" stroke-width="10" stroke-linecap="round"/>
    <path d="M108 20L128 60" stroke="#D2A24C" stroke-width="10" stroke-linecap="round"/>
    <path d="M126 14L146 54" stroke="#D2A24C" stroke-width="10" stroke-linecap="round"/>
    <path d="M144 20L164 60" stroke="#D2A24C" stroke-width="10" stroke-linecap="round"/>
  </g>
  <g transform="translate(232 60)">
    <text x="0" y="64" fill="#11212D" font-family="Georgia, 'Times New Roman', serif" font-size="66" font-weight="700" letter-spacing="0.5">clawbooks</text>
    <text x="2" y="112" fill="#4A5C6A" font-family="'Trebuchet MS', Verdana, sans-serif" font-size="26" letter-spacing="1.5">ACCOUNTING BY INFERENCE, NOT BY ENGINE.</text>
  </g>
</svg>
